<?xml version="1.0"?>
<svg xmlns="http://www.w3.org/2000/svg" xmlns:xlink="http://www.w3.org/1999/xlink" version="1.1" viewBox="0 0 224 224" width="16px" height="16px"><g fill="none" fill-rule="nonzero" stroke="none" stroke-width="1" stroke-linecap="butt" stroke-linejoin="miter" stroke-miterlimit="10" stroke-dasharray="" stroke-dashoffset="0" font-family="none" font-weight="none" font-size="none" text-anchor="none" style="mix-blend-mode: normal"><path d="M0,224v-224h224v224z" fill="none"/><g id="Layer_1"><g><path d="M8.4,198.8v-173.6h57.6408l16.8,16.8h132.7592v156.8z" fill="#cccccc"/><g fill="#666666"><path d="M64.8816,28l15.1592,15.1592l1.6408,1.6408h2.3184h128.8v151.2h-201.6v-168h53.6816M67.2,22.4h-61.6v179.2h212.8v-162.4h-134.4l-16.8,-16.8z"/></g></g><g><path d="M8.4,198.8v-145.6h59.6456l16.8,-11.2h130.7544v156.8z" fill="#dddddd"/><g fill="#666666"><path d="M212.8,44.8v151.2h-201.6v-140h56h1.6968l1.4112,-0.9408l15.3888,-10.2592h127.1032M218.4,39.2h-134.4l-16.8,11.2h-61.6v151.2h212.8v-162.4z"/></g></g></g></g></svg>
