<?xml version="1.0" encoding="utf-8"?>
<!-- Generator: Adobe Illustrator 19.2.1, SVG Export Plug-In . SVG Version: 6.00 Build 0)  -->
<svg version="1.1" id="Layer_1" xmlns="http://www.w3.org/2000/svg" xmlns:xlink="http://www.w3.org/1999/xlink" x="0px" y="0px"
	 viewBox="0 0 306.5 41" style="enable-background:new 0 0 306.5 41;" xml:space="preserve">
<style type="text/css">
	.st0{fill:#242427;}
	.st1{fill:#F86012;}
	.st2{fill:#B114F7;}
	.st3{fill:#0FB6F2;}
</style>
<g>
	<path class="st0" d="M57.8,24.8c0.1,0.9,0.4,1.6,1.1,2.3s1.6,1,2.9,1c1,0,1.7-0.2,2.2-0.6c0.5-0.4,0.7-0.9,0.7-1.5
		c0-0.5-0.2-0.9-0.5-1.3c-0.4-0.4-1-0.6-1.8-0.8l-2.9-0.7c-2.1-0.5-3.7-1.3-4.6-2.4c-1-1.2-1.5-2.5-1.5-4c0-1,0.2-1.9,0.6-2.8
		c0.4-0.9,1-1.6,1.7-2.2c0.7-0.6,1.6-1.1,2.6-1.5c1-0.4,2.1-0.6,3.2-0.6c1.5,0,2.8,0.2,3.9,0.6s1.9,1,2.6,1.6s1.2,1.3,1.5,2
		c0.3,0.7,0.5,1.4,0.6,2l-4.9,1.1c-0.1-0.3-0.2-0.7-0.3-1s-0.3-0.7-0.6-0.9c-0.3-0.3-0.7-0.5-1.1-0.7c-0.4-0.2-0.9-0.3-1.6-0.3
		c-0.8,0-1.4,0.2-2,0.6c-0.5,0.4-0.8,0.9-0.8,1.5c0,0.5,0.2,1,0.6,1.3c0.4,0.3,0.8,0.5,1.4,0.7l3.1,0.7c2.1,0.4,3.8,1.3,4.8,2.5
		c1.1,1.2,1.6,2.6,1.6,4.2c0,0.9-0.2,1.8-0.5,2.6c-0.3,0.9-0.9,1.7-1.6,2.3c-0.7,0.7-1.6,1.2-2.6,1.6s-2.3,0.6-3.7,0.6
		c-1.6,0-3-0.2-4.1-0.7s-2-1-2.7-1.7c-0.7-0.7-1.2-1.4-1.6-2.2c-0.3-0.8-0.5-1.5-0.6-2.1L57.8,24.8L57.8,24.8z M84.7,9.6
		c1.6,0,3.1,0.3,4.5,0.9c1.4,0.6,2.6,1.4,3.6,2.4c1,1,1.8,2.2,2.4,3.6c0.6,1.4,0.9,3,0.9,4.6c0,1.7-0.3,3.2-0.9,4.6
		c-0.5,1.4-1.4,2.6-2.4,3.6c-1,1-2.2,1.8-3.6,2.4s-2.9,0.9-4.5,0.9c-1.6,0-3.1-0.3-4.5-0.9c-1.4-0.5-2.6-1.4-3.6-2.4
		c-1-1-1.8-2.2-2.4-3.6s-0.9-2.9-0.9-4.6c0-1.7,0.3-3.2,0.9-4.6s1.4-2.6,2.4-3.6c1-1,2.3-1.8,3.6-2.4C81.6,9.9,83.1,9.6,84.7,9.6
		L84.7,9.6z M84.7,27.2c0.7,0,1.4-0.1,2.1-0.4c0.7-0.3,1.3-0.7,1.8-1.2c0.5-0.5,0.9-1.2,1.2-1.9s0.5-1.7,0.5-2.7s-0.2-1.9-0.5-2.7
		s-0.7-1.4-1.2-1.9c-0.5-0.5-1.1-0.9-1.8-1.2c-1.3-0.5-2.8-0.5-4.1,0c-0.7,0.3-1.3,0.7-1.8,1.2c-0.5,0.5-0.9,1.2-1.2,1.9
		s-0.5,1.7-0.5,2.7s0.2,1.9,0.5,2.7s0.7,1.4,1.2,1.9c0.5,0.5,1.1,0.9,1.8,1.2C83.3,27.1,84,27.2,84.7,27.2L84.7,27.2z M114.9,31.9
		c-0.1-0.3-0.1-0.7-0.1-1c0-0.4,0-0.9,0-1.3c-0.6,1-1.4,1.8-2.6,2.2c-1.1,0.4-2.2,0.7-3.4,0.7c-1.3,0-2.5-0.2-3.5-0.7
		c-1-0.5-1.9-1.1-2.6-1.8s-1.2-1.7-1.6-2.7c-0.4-1.1-0.6-2.2-0.6-3.3V10.2h5.9v12.5c0,1.2,0.3,2.3,0.9,3.1c0.6,0.8,1.6,1.3,3,1.3
		c1.3,0,2.3-0.4,3-1.2s1.1-1.8,1.1-3.1V10.2h5.9V28c0,0.9,0,1.6,0.1,2.3c0,0.7,0.1,1.2,0.2,1.6L114.9,31.9L114.9,31.9z M139.8,16
		c-0.6-0.1-1.2-0.2-1.8-0.2c-0.8,0-1.5,0.1-2.2,0.3c-0.7,0.2-1.3,0.5-1.8,1c-0.5,0.5-0.9,1.1-1.2,1.9c-0.3,0.8-0.5,1.8-0.5,2.9v9.9
		h-5.9V10.2h5.7v3.2c0.3-0.7,0.7-1.3,1.3-1.7c0.5-0.5,1.1-0.8,1.6-1c0.6-0.2,1.1-0.4,1.7-0.5c0.5-0.1,1-0.1,1.6-0.1
		c0.2,0,0.5,0,0.7,0c0.2,0,0.4,0,0.7,0.1V16L139.8,16z M153.5,15c-0.7,0-1.5,0.1-2.1,0.4c-0.7,0.3-1.3,0.7-1.7,1.2
		c-0.5,0.5-0.9,1.2-1.2,1.9c-0.3,0.8-0.4,1.6-0.4,2.6c0,1,0.1,1.8,0.4,2.6c0.3,0.8,0.7,1.4,1.2,1.9c0.5,0.5,1.1,0.9,1.8,1.2
		c0.7,0.3,1.4,0.4,2.1,0.4c0.7,0,1.4-0.1,2-0.3c0.5-0.2,1-0.5,1.5-0.9c0.4-0.4,0.7-0.8,1-1.2s0.4-0.9,0.6-1.3l5.2,1.7
		c-0.2,0.9-0.6,1.8-1.2,2.7c-0.6,0.9-1.3,1.7-2.1,2.3c-0.9,0.7-1.9,1.2-3,1.7s-2.4,0.6-3.9,0.6c-1.6,0-3.1-0.3-4.5-0.9
		c-1.4-0.5-2.6-1.4-3.6-2.4c-1-1-1.9-2.3-2.4-3.6c-0.6-1.4-0.9-2.9-0.9-4.6c0-1.7,0.3-3.2,0.9-4.6s1.4-2.6,2.4-3.6
		c1-1,2.2-1.8,3.6-2.4c1.4-0.6,2.8-0.9,4.4-0.9c1.5,0,2.8,0.2,3.9,0.6c1.2,0.4,2.2,1,3,1.7c0.8,0.6,1.5,1.4,2.1,2.3
		c0.5,0.9,0.9,1.8,1.1,2.7l-5.2,1.8c-0.3-0.9-0.8-1.8-1.5-2.5C156.1,15.4,155,15,153.5,15L153.5,15z M187.5,25.7
		c-0.6,1.9-1.7,3.6-3.4,4.8c-0.8,0.6-1.8,1.1-2.9,1.5s-2.3,0.5-3.6,0.5c-1.5,0-2.9-0.3-4.3-0.8c-1.3-0.5-2.6-1.3-3.6-2.3
		c-1-1-1.8-2.2-2.4-3.7c-0.6-1.4-0.9-3.1-0.9-4.9c0-1.7,0.3-3.3,0.9-4.7c0.6-1.4,1.4-2.6,2.4-3.6c1-1,2.1-1.8,3.4-2.3
		c1.3-0.5,2.6-0.8,4-0.8c3.4,0,6,1,7.9,3c1.9,2,2.8,4.7,2.8,8.2c0,0.4,0,0.8,0,1.2c0,0.4,0,0.6,0,0.6h-15.5c0,0.7,0.2,1.4,0.5,2
		s0.7,1.1,1.2,1.6c0.5,0.4,1.1,0.8,1.7,1s1.3,0.4,2.1,0.4c1.4,0,2.5-0.3,3.2-0.9c0.8-0.6,1.4-1.4,1.7-2.4L187.5,25.7L187.5,25.7z
		 M182,18.6c0-0.5-0.1-1-0.3-1.6s-0.5-1-0.9-1.4c-0.4-0.4-0.9-0.7-1.5-1s-1.3-0.4-2.1-0.4c-0.8,0-1.4,0.1-2,0.4
		c-0.6,0.2-1.1,0.6-1.5,1c-0.4,0.4-0.7,0.9-0.9,1.4c-0.2,0.5-0.3,1-0.4,1.5L182,18.6L182,18.6z M196.2,31.7c0.2,1.2,0.8,2.2,1.6,3
		s2,1.1,3.4,1.1c1.9,0,3.3-0.5,4.3-1.4c1-1,1.5-2.5,1.5-4.6v-1.6c-0.4,0.7-1.2,1.3-2.2,1.9S202.6,31,201,31c-1.4,0-2.8-0.3-4-0.8
		s-2.3-1.3-3.2-2.2c-0.9-1-1.6-2.1-2.1-3.3c-0.5-1.3-0.8-2.7-0.8-4.2c0-1.4,0.2-2.8,0.7-4.1s1.2-2.4,2.1-3.4s1.9-1.7,3.2-2.3
		s2.6-0.8,4.1-0.8c1.7,0,3.1,0.3,4.1,0.9s1.7,1.3,2.1,2v-2.6h5.6v19.4c0,1.5-0.2,2.9-0.6,4.3s-1.1,2.6-2,3.6c-0.9,1-2.1,1.9-3.5,2.5
		c-1.4,0.6-3.2,0.9-5.2,0.9c-1.5,0-2.9-0.2-4.1-0.6c-1.2-0.4-2.3-1-3.2-1.7c-0.9-0.7-1.6-1.6-2.2-2.5s-0.9-1.9-1.1-3L196.2,31.7
		L196.2,31.7z M202,25.9c1.5,0,2.7-0.5,3.7-1.5c1-1,1.4-2.3,1.4-4c0-1.7-0.5-3-1.5-4c-1-1-2.2-1.5-3.6-1.5c-0.7,0-1.4,0.1-2.1,0.4
		c-0.6,0.2-1.2,0.6-1.7,1.1c-0.5,0.5-0.9,1.1-1.1,1.7c-0.3,0.7-0.4,1.4-0.4,2.2c0,1.7,0.5,3,1.5,4C199.2,25.4,200.5,25.9,202,25.9
		L202,25.9z M232,16c-0.6-0.1-1.2-0.2-1.8-0.2c-0.8,0-1.5,0.1-2.2,0.3c-0.7,0.2-1.3,0.5-1.8,1s-0.9,1.1-1.2,1.9
		c-0.3,0.8-0.5,1.8-0.5,2.9v9.9h-5.9V10.2h5.7v3.2c0.3-0.7,0.7-1.3,1.3-1.7c0.5-0.5,1.1-0.8,1.6-1c0.6-0.2,1.1-0.4,1.7-0.5
		c0.5-0.1,1-0.1,1.6-0.1c0.2,0,0.5,0,0.7,0c0.2,0,0.4,0,0.7,0.1V16L232,16z M234.7,26c0-1,0.2-1.8,0.5-2.6c0.3-0.7,0.8-1.4,1.4-2
		c0.6-0.6,1.3-1,2-1.3c0.8-0.3,1.7-0.6,2.5-0.7l5.3-0.8c0.6-0.1,1-0.3,1.3-0.5c0.2-0.3,0.4-0.6,0.4-1c0-0.8-0.3-1.4-0.9-2
		c-0.6-0.6-1.5-0.8-2.8-0.8c-1.3,0-2.3,0.4-3,1.1c-0.7,0.7-1.1,1.5-1.2,2.5l-5.2-1.1c0.1-0.9,0.4-1.7,0.8-2.6
		c0.5-0.9,1.1-1.6,1.8-2.3c0.8-0.7,1.7-1.2,2.8-1.7c1.1-0.4,2.4-0.6,3.9-0.6c1.7,0,3.2,0.2,4.4,0.7c1.2,0.5,2.2,1.1,2.9,1.8
		c0.7,0.7,1.3,1.6,1.6,2.6c0.3,1,0.5,2,0.5,3.1v10.7c0,0.6,0,1.2,0.1,1.9c0.1,0.7,0.1,1.2,0.2,1.6h-5.4c-0.1-0.4-0.1-0.8-0.2-1.2
		c0-0.5-0.1-0.9-0.1-1.4c-0.6,0.9-1.4,1.6-2.4,2.2c-1,0.6-2.4,1-4,1c-1.1,0-2.2-0.2-3.1-0.6s-1.7-0.9-2.4-1.5s-1.1-1.3-1.5-2.1
		C234.8,27.7,234.7,26.9,234.7,26L234.7,26z M243.4,28.2c0.6,0,1.2-0.1,1.8-0.2c0.6-0.2,1.1-0.4,1.5-0.8c0.4-0.4,0.8-0.9,1.1-1.5
		c0.3-0.6,0.4-1.4,0.4-2.4v-1l-4.9,0.8c-0.8,0.1-1.4,0.4-1.9,0.8c-0.5,0.4-0.8,1.1-0.8,1.9c0,0.6,0.2,1.2,0.7,1.7
		C241.7,27.9,242.4,28.2,243.4,28.2L243.4,28.2z M259.8,40.3V10.2h5.7v2.6c0.5-0.9,1.3-1.6,2.5-2.2c1.1-0.6,2.5-0.9,4.2-0.9
		c1.6,0,3,0.3,4.2,0.9s2.3,1.4,3.1,2.4c0.9,1,1.5,2.2,2,3.6c0.4,1.4,0.7,2.9,0.7,4.5c0,1.6-0.2,3.2-0.7,4.6
		c-0.5,1.4-1.2,2.6-2.1,3.6c-0.9,1-2,1.8-3.2,2.4c-1.3,0.6-2.7,0.9-4.2,0.9c-1.5,0-2.8-0.3-3.9-0.8c-1.1-0.5-1.9-1.1-2.4-1.9v10.5
		L259.8,40.3L259.8,40.3z M276.3,21.1c0-1.9-0.5-3.4-1.6-4.5c-1-1.1-2.3-1.6-3.8-1.6c-0.8,0-1.5,0.1-2.1,0.4
		c-0.6,0.3-1.2,0.7-1.7,1.2s-0.9,1.1-1.2,1.9c-0.3,0.8-0.4,1.6-0.4,2.6c0,1,0.1,1.8,0.4,2.6c0.3,0.7,0.7,1.4,1.2,1.9
		c0.5,0.5,1.1,0.9,1.7,1.2c0.6,0.3,1.4,0.4,2.1,0.4c1.5,0,2.8-0.5,3.8-1.6C275.8,24.5,276.3,23,276.3,21.1L276.3,21.1z M292.6,31.9
		h-5.9V0h5.9v12c0.7-0.9,1.6-1.5,2.7-1.8s2.1-0.5,3.2-0.5c1.4,0,2.6,0.2,3.6,0.7c1,0.5,1.9,1.1,2.5,1.8c0.7,0.8,1.2,1.7,1.5,2.7
		s0.5,2.2,0.5,3.3v13.7h-5.9V19.3c0-1.2-0.3-2.3-0.9-3.1c-0.6-0.8-1.7-1.2-3.1-1.2c-1.2,0-2.2,0.4-2.9,1.2c-0.7,0.8-1.1,1.8-1.1,3
		L292.6,31.9L292.6,31.9z"/>
</g>
<path class="st1" d="M23.6,39.3c-1.8,0-3.4-1.2-3.9-3L11.1,5.4c-0.5-2.2,0.8-4.4,3-4.9c2.1-0.5,4.2,0.7,4.8,2.7l8.5,30.9
	c0.6,2.2-0.7,4.4-2.8,5C24.3,39.2,23.9,39.3,23.6,39.3L23.6,39.3z"/>
<path class="st2" d="M8.6,35.8c-2.2,0-4-1.8-4-4c0-1,0.4-2,1-2.7L27,5.1c1.5-1.7,4-1.8,5.7-0.3c0,0,0,0,0,0c1.7,1.5,1.8,4,0.3,5.7
	c0,0,0,0,0,0L11.6,34.4C10.8,35.3,9.7,35.8,8.6,35.8L8.6,35.8z"/>
<path class="st3" d="M34.5,28.8c-0.4,0-0.8-0.1-1.3-0.2l-30.5-10c-2.1-0.7-3.3-3-2.6-5.1c0.7-2.1,3-3.3,5.1-2.6l30.5,10
	c2.1,0.7,3.3,3,2.6,5.1C37.8,27.7,36.3,28.8,34.5,28.8z"/>
</svg>
