<svg width="228" height="32" viewBox="0 0 228 32" version="1.1" xmlns="http://www.w3.org/2000/svg" xmlns:xlink="http://www.w3.org/1999/xlink">
<title>logo</title>
<desc>Created using Figma</desc>
<g id="Canvas" transform="translate(-2905 -19951)">
<g id="logo">
<g id="WordMark">
<g id="Shape">
<use xlink:href="#path0_fill" transform="translate(2948.21 19958.2)" fill="#212529"/>
</g>
<g id="Shape">
<use xlink:href="#path1_fill" transform="translate(2962.96 19958.2)" fill="#212529"/>
</g>
<g id="Shape">
<use xlink:href="#path2_fill" transform="translate(2982.7 19958.7)" fill="#212529"/>
</g>
<g id="Shape">
<use xlink:href="#path3_fill" transform="translate(3001.67 19958.6)" fill="#212529"/>
</g>
<g id="Shape">
<use xlink:href="#path4_fill" transform="translate(3012.7 19958.2)" fill="#212529"/>
</g>
<g id="Shape">
<use xlink:href="#path5_fill" transform="translate(3030.15 19958.2)" fill="#212529"/>
</g>
<g id="Shape">
<use xlink:href="#path6_fill" transform="translate(3047.92 19958.4)" fill="#212529"/>
</g>
<g id="Shape">
<use xlink:href="#path7_fill" transform="translate(3068.26 19958.6)" fill="#212529"/>
</g>
<g id="Shape">
<use xlink:href="#path8_fill" transform="translate(3079.79 19958.2)" fill="#212529"/>
</g>
<g id="Shape">
<use xlink:href="#path9_fill" transform="translate(3098.03 19958.3)" fill="#212529"/>
</g>
<g id="Shape">
<use xlink:href="#path10_fill" transform="translate(3117.7 19951)" fill="#212529"/>
</g>
</g>
<g id="LogoMark">
<g id="Shape">
<use xlink:href="#path11_fill" transform="translate(2913.93 19951.2)" fill="#F96216"/>
</g>
<g id="Shape">
<use xlink:href="#path12_fill" transform="translate(2908.71 19954)" fill="#B200F8"/>
</g>
<g id="Shape">
<use xlink:href="#path13_fill" transform="translate(2905 19959.8)" fill="#00B4F2"/>
</g>
</g>
</g>
</g>
<defs>
<path id="path0_fill" fill-rule="evenodd" d="M 3.78661 11.4653C 3.83034 12.1084 4.09659 12.6833 4.58406 13.1927C 5.07025 13.702 5.8021 13.958 6.77705 13.958C 7.50891 13.958 8.0504 13.7972 8.40668 13.4756C 8.75911 13.1554 8.93789 12.7721 8.93789 12.3296C 8.93789 11.9528 8.80412 11.6261 8.53788 11.3483C 8.27163 11.0717 7.8176 10.8672 7.17578 10.7334L 5.01623 10.2344C 3.42132 9.88068 2.2573 9.26587 1.52673 8.38996C 0.796165 7.51534 0.429595 6.5018 0.429595 5.34936C 0.429595 4.6175 0.58394 3.92681 0.895204 3.27212C 1.20518 2.61873 1.63092 2.05408 2.17498 1.5769C 2.71777 1.101 3.35959 0.718993 4.10302 0.430881C 4.84516 0.144056 5.65805 0 6.54553 0C 7.69669 0 8.67164 0.160777 9.4691 0.48233C 10.2665 0.803883 10.9148 1.20775 11.4126 1.69523C 11.9116 2.1827 12.282 2.69719 12.5251 3.23997C 12.7682 3.78275 12.9123 4.27537 12.9573 4.71911L 9.26973 5.54872C 9.22471 5.30563 9.15269 5.0561 9.05365 4.80143C 8.95461 4.54676 8.79383 4.30881 8.5726 4.0863C 8.35009 3.86507 8.07999 3.68757 7.75843 3.55509C 7.43688 3.42261 7.04458 3.35573 6.57898 3.35573C 6.00275 3.35573 5.51013 3.51136 5.09983 3.82005C 4.69082 4.13131 4.48502 4.51846 4.48502 4.98279C 4.48502 5.38151 4.62265 5.70307 4.90047 5.94745C 5.177 6.19054 5.53714 6.35646 5.98089 6.44521L 8.30636 6.94297C 9.92313 7.2761 11.136 7.89606 11.9451 8.80412C 12.7541 9.71348 13.158 10.7643 13.158 11.9605C 13.158 12.6267 13.0293 13.2789 12.7759 13.9207C 12.52 14.5638 12.1277 15.1387 11.5965 15.6493C 11.0653 16.16 10.4003 16.569 9.60286 16.879C 8.80541 17.1877 7.87548 17.3433 6.81178 17.3433C 5.57187 17.3433 4.53133 17.1658 3.68886 16.8121C 2.84639 16.4584 2.16084 16.0249 1.62834 15.5156C 1.09585 15.0062 0.703558 14.4583 0.448888 13.8718C 0.194218 13.284 0.0437312 12.7592 0 12.2936L 3.78661 11.4653Z"/>
<path id="path1_fill" fill-rule="evenodd" d="M 8.57389 0C 9.79193 0 10.9277 0.214797 11.9798 0.646965C 13.0319 1.07913 13.94 1.67722 14.7053 2.44123C 15.4693 3.20524 16.0674 4.11974 16.4995 5.18215C 16.9317 6.24585 17.1478 7.40858 17.1478 8.67164C 17.1478 9.9347 16.9317 11.091 16.4995 12.1444C 16.0674 13.1978 15.4693 14.111 14.7053 14.8853C 13.9413 15.6622 13.0319 16.2642 11.9798 16.6963C 10.9277 17.1285 9.79193 17.3446 8.57389 17.3446C 7.35456 17.3446 6.21884 17.1285 5.168 16.6963C 4.11588 16.2642 3.20781 15.6609 2.4438 14.8853C 1.67851 14.111 1.08042 13.1978 0.648251 12.1444C 0.216084 11.091 0 9.9347 0 8.67164C 0 7.40987 0.216084 6.24585 0.648251 5.18215C 1.08042 4.11845 1.67851 3.20524 2.4438 2.44123C 3.20781 1.67722 4.11588 1.07913 5.168 0.646965C 6.22012 0.216084 7.35585 0 8.57389 0ZM 8.57389 13.3247C 9.10638 13.3247 9.62601 13.2269 10.1354 13.0263C 10.6447 12.8282 11.0884 12.5336 11.4653 12.1465C 11.8409 11.7593 12.1457 11.277 12.3798 10.7008C 12.6126 10.1246 12.7284 9.4493 12.7284 8.67371C 12.7284 7.89813 12.6126 7.22287 12.3798 6.64664C 12.1457 6.07171 11.8422 5.58938 11.4653 5.20094C 11.0884 4.81379 10.646 4.52053 10.1354 4.31989C 9.62601 4.12052 9.10638 4.02148 8.57389 4.02148C 8.04268 4.02148 7.52177 4.12052 7.01243 4.31989C 6.50309 4.51925 6.06063 4.81379 5.68377 5.20094C 5.30691 5.58938 5.00337 6.07171 4.77056 6.64664C 4.53776 7.22287 4.422 7.89813 4.422 8.67371C 4.422 9.4493 4.53904 10.1233 4.77056 10.7008C 5.00337 11.277 5.30691 11.7593 5.68377 12.1465C 6.06063 12.5336 6.50309 12.8269 7.01243 13.0263C 7.52177 13.2269 8.04268 13.3247 8.57389 13.3247Z"/>
<path id="path2_fill" fill-rule="evenodd" d="M 10.8646 16.349C 10.8196 16.1703 10.7862 15.9169 10.7656 15.5837C 10.7424 15.2506 10.7322 14.9188 10.7322 14.5869C 10.2884 15.3638 9.64016 15.922 8.78869 16.2667C 7.93464 16.6089 7.07674 16.7812 6.21369 16.7812C 5.21688 16.7812 4.33711 16.6076 3.57181 16.2667C 2.8078 15.922 2.15955 15.4628 1.62834 14.8866C 1.09585 14.3104 0.691982 13.6287 0.415447 12.8428C 0.138911 12.057 0 11.2196 0 10.3347L 0 0L 4.41943 0L 4.41943 9.43694C 4.41943 10.3682 4.65737 11.1476 5.13456 11.7791C 5.61046 12.4094 6.36932 12.7258 7.41115 12.7258C 8.40797 12.7258 9.17327 12.4274 9.70447 11.8293C 10.2357 11.2312 10.5019 10.4556 10.5019 9.50254L 10.5019 0L 14.9213 0L 14.9213 13.3908C 14.9213 14.0339 14.9381 14.6152 14.9715 15.1361C 15.005 15.6571 15.0435 16.0609 15.0873 16.349L 10.8646 16.349Z"/>
<path id="path3_fill" fill-rule="evenodd" d="M 9.96815 4.51846C 9.52569 4.42972 9.08323 4.3847 8.63949 4.3847C 8.06326 4.3847 7.52048 4.46316 7.01114 4.6175C 6.5018 4.77313 6.05806 5.0278 5.68249 5.38151C 5.30563 5.73651 5.00079 6.20726 4.76928 6.79377C 4.53647 7.38157 4.42071 8.11857 4.42071 9.00349L 4.42071 16.4802L 0 16.4802L 0 0.13248L 4.28695 0.13248L 4.28695 2.55828C 4.53004 2.02578 4.84645 1.58976 5.2336 1.24505C 5.62075 0.902921 6.03105 0.643106 6.46322 0.464323C 6.8941 0.286825 7.32755 0.165921 7.75843 0.0990383C 8.1906 0.0334415 8.58418 0 8.93789 0C 9.11539 0 9.28645 0.00514485 9.45237 0.0167208C 9.6183 0.0282967 9.79065 0.0450174 9.96686 0.066883L 9.96686 4.51846L 9.96815 4.51846Z"/>
<path id="path4_fill" fill-rule="evenodd" d="M 8.57389 4.08758C 7.99767 4.08758 7.46003 4.18791 6.96227 4.38598C 6.46322 4.58663 6.0259 4.87989 5.65033 5.26704C 5.27347 5.65548 4.97378 6.13652 4.75255 6.71274C 4.53004 7.28897 4.42071 7.94236 4.42071 8.67293C 4.42071 9.4035 4.53004 10.0582 4.75255 10.6331C 4.97378 11.2106 5.27861 11.6955 5.66576 12.0955C 6.05291 12.4956 6.49666 12.794 6.99442 12.992C 7.49347 13.1914 8.02982 13.2904 8.60605 13.2904C 9.1604 13.2904 9.65302 13.2094 10.0852 13.0422C 10.5161 12.8763 10.8878 12.6602 11.199 12.3939C 11.509 12.1277 11.7586 11.8293 11.9463 11.4975C 12.1341 11.1656 12.273 10.8441 12.3618 10.5341L 16.2487 11.8293C 16.0712 12.5174 15.778 13.1888 15.3677 13.8396C 14.9574 14.493 14.4313 15.0796 13.7895 15.6018C 13.1464 16.1214 12.3939 16.542 11.5296 16.8622C 10.6666 17.1838 9.69032 17.3446 8.60605 17.3446C 7.40987 17.3446 6.28572 17.1285 5.2336 16.6963C 4.18148 16.2642 3.26827 15.6609 2.49268 14.8853C 1.71709 14.111 1.10871 13.1965 0.666258 12.1444C 0.222515 11.0923 0 9.9347 0 8.67164C 0 7.40987 0.216084 6.24585 0.648251 5.18215C 1.08042 4.11845 1.67851 3.20524 2.4438 2.44123C 3.20781 1.67722 4.10559 1.07913 5.13456 0.646965C 6.16481 0.216084 7.27867 0 8.47357 0C 9.58228 0 10.5727 0.160777 11.4473 0.48233C 12.3219 0.803883 13.0808 1.21804 13.7239 1.72867C 14.367 2.23801 14.8866 2.82452 15.2853 3.48949C 15.6841 4.15447 15.9722 4.82973 16.1497 5.51656L 12.1959 6.84522C 11.9965 6.15967 11.6132 5.52814 11.0486 4.95192C 10.4839 4.37569 9.65817 4.08758 8.57389 4.08758Z"/>
<path id="path5_fill" fill-rule="evenodd" d="M 15.8796 12.165C 15.6815 12.8737 15.3677 13.5425 14.9355 14.1741C 14.5033 14.8043 13.976 15.3535 13.3547 15.8178C 12.7348 16.2834 12.0106 16.6526 11.1798 16.9304C 10.3489 17.2082 9.43694 17.3459 8.43884 17.3459C 7.30826 17.3459 6.23427 17.1516 5.21559 16.7645C 4.19691 16.3761 3.29913 15.8063 2.52483 15.0538C 1.74925 14.3001 1.13444 13.3818 0.680406 12.2936C 0.226373 11.2106 0 9.97972 0 8.60605C 0 7.29925 0.219942 6.11337 0.664972 5.05096C 1.10743 3.98726 1.70037 3.08562 2.44252 2.34348C 3.18466 1.60133 4.04256 1.02511 5.0188 0.616096C 5.99246 0.205794 7.00085 0 8.0414 0C 10.5881 0 12.5702 0.75372 13.9901 2.25987C 15.4075 3.76603 16.115 5.83683 16.115 8.47357C 16.115 8.78483 16.1047 9.0768 16.0828 9.35462C 16.0596 9.63116 16.0506 9.79193 16.0506 9.83566L 4.35383 9.83566C 4.37569 10.3669 4.50432 10.8608 4.73712 11.3135C 4.96864 11.7688 5.26833 12.1624 5.63361 12.4943C 5.99889 12.8261 6.42592 13.0872 6.91339 13.275C 7.40086 13.4628 7.92049 13.5567 8.47485 13.5567C 9.5154 13.5567 10.3283 13.3226 10.9161 12.8583C 11.5039 12.3939 11.9309 11.7959 12.1946 11.064L 15.8796 12.165ZM 11.7598 6.81376C 11.7366 6.41503 11.6569 6.02145 11.5115 5.6343C 11.3688 5.24715 11.1475 4.90373 10.8478 4.60533C 10.5469 4.30564 10.1726 4.06255 9.71726 3.87476C 9.26194 3.68698 8.72559 3.5918 8.10435 3.5918C 7.52941 3.5918 7.02007 3.69212 6.57762 3.89148C 6.13387 4.09085 5.75701 4.3468 5.44832 4.65549C 5.13706 4.96676 4.9004 5.30889 4.73447 5.68575C 4.56727 6.06261 4.47337 6.43818 4.45151 6.81504L 11.7598 6.81504L 11.7598 6.81376Z"/>
<path id="path6_fill" fill-rule="evenodd" d="M 3.98983 16.4828C 4.14289 17.3909 4.55448 18.1317 5.21816 18.7092C 5.88442 19.2842 6.74747 19.5723 7.81117 19.5723C 9.20542 19.5723 10.2807 19.2122 11.0344 18.4932C 11.7881 17.7716 12.165 16.614 12.165 15.0204L 12.165 13.8229C 11.8306 14.3554 11.2878 14.8377 10.5341 15.2699C 9.78293 15.7008 8.80798 15.9169 7.61309 15.9169C 6.52495 15.9169 5.51785 15.7188 4.58792 15.3188C 3.65542 14.9201 2.8541 14.367 2.17884 13.657C 1.50358 12.9483 0.97109 12.1123 0.58394 11.1489C 0.194218 10.1855 0.00128621 9.12825 0.00128621 7.9758C 0.00128621 6.89024 0.189073 5.86641 0.565933 4.90175C 0.942794 3.93838 1.46242 3.09077 2.12868 2.35891C 2.79237 1.62834 3.5911 1.05212 4.51975 0.63153C 5.45225 0.210939 6.48122 0 7.6118 0C 8.9186 0 9.94757 0.232804 10.6987 0.697127C 11.4524 1.16145 11.9746 1.67208 12.2615 2.22515L 12.2615 0.300974L 16.515 0.300974L 16.515 14.8879C 16.515 16.0185 16.3542 17.0976 16.0352 18.1279C 15.7137 19.1594 15.2082 20.0662 14.5226 20.8534C 13.8345 21.6392 12.947 22.2708 11.8653 22.7467C 10.7797 23.2226 9.47167 23.4618 7.94365 23.4618C 6.81307 23.4618 5.78796 23.301 4.86831 22.9808C 3.94867 22.6592 3.14479 22.227 2.45924 21.6843C 1.77369 21.1402 1.21804 20.5099 0.798738 19.7909C 0.37686 19.0694 0.110614 18.3221 0 17.5478L 3.98983 16.4828ZM 8.37576 12.129C 9.50377 12.129 10.4311 11.7521 11.1488 10.9984C 11.8704 10.246 12.2293 9.2376 12.2293 7.97454C 12.2293 6.71148 11.8524 5.70952 11.0987 4.96738C 10.345 4.22523 9.43817 3.85352 8.37576 3.85352C 7.82012 3.85352 7.30563 3.9487 6.83102 4.13648C 6.35384 4.32427 5.9371 4.6008 5.58211 4.96738C 5.2284 5.33266 4.95187 5.77126 4.7525 6.2806C 4.55443 6.78994 4.4541 7.35587 4.4541 7.97454C 4.4541 9.26075 4.8181 10.2743 5.54995 11.0151C 6.28052 11.7573 7.22332 12.129 8.37576 12.129Z"/>
<path id="path7_fill" fill-rule="evenodd" d="M 9.96943 4.51846C 9.52697 4.42972 9.08452 4.3847 8.64077 4.3847C 8.06584 4.3847 7.52306 4.46316 7.01243 4.6175C 6.5018 4.77185 6.06063 5.0278 5.68377 5.38151C 5.30691 5.73651 5.00337 6.20726 4.76927 6.79377C 4.53776 7.38157 4.422 8.11857 4.422 9.00349L 4.422 16.4802L 0 16.4802L 0 0.13248L 4.28566 0.13248L 4.28566 2.55828C 4.53133 2.02578 4.84645 1.58976 5.23488 1.24505C 5.62203 0.902921 6.03105 0.643106 6.46322 0.464323C 6.89538 0.286825 7.32755 0.165921 7.75972 0.0990383C 8.19189 0.0334415 8.58418 0 8.93789 0C 9.11667 0 9.28645 0.00514485 9.45237 0.0167208C 9.62087 0.0282967 9.79193 0.0450174 9.96686 0.066883L 9.96686 4.51846L 9.96943 4.51846Z"/>
<path id="path8_fill" fill-rule="evenodd" d="M 0 12.3952C 0 11.6647 0.128621 11.0164 0.382005 10.4505C 0.635389 9.88454 0.985239 9.39321 1.42641 8.97262C 1.87144 8.55202 2.38592 8.22018 2.97115 7.97709C 3.55895 7.73399 4.19691 7.5565 4.88246 7.4446L 8.90445 6.84651C 9.36877 6.78091 9.69032 6.642 9.86653 6.43235C 10.0453 6.22141 10.1328 5.97317 10.1328 5.68377C 10.1328 5.10755 9.90641 4.60978 9.45237 4.18791C 8.99706 3.76732 8.30636 3.55638 7.37514 3.55638C 6.40019 3.55638 5.65419 3.82262 5.13199 4.35383C 4.61236 4.88632 4.31781 5.50627 4.25222 6.21498L 0.330557 5.38408C 0.396153 4.74098 0.596803 4.09916 0.928645 3.45605C 1.26049 2.81423 1.71452 2.23801 2.29074 1.72867C 2.86825 1.21933 3.57696 0.803883 4.41814 0.48233C 5.25932 0.160777 6.23427 0 7.3417 0C 8.62534 0 9.72376 0.171066 10.6331 0.514485C 11.5399 0.857904 12.2756 1.31194 12.8415 1.87658C 13.4062 2.44123 13.8165 3.10106 14.0699 3.85349C 14.3258 4.60721 14.4545 5.39309 14.4545 6.2124L 14.4545 14.2538C 14.4545 14.6975 14.475 15.1683 14.5201 15.6661C 14.5651 16.1638 14.6075 16.5574 14.6538 16.8468L 10.5997 16.8468C 10.5547 16.6256 10.5174 16.3207 10.4839 15.9323C 10.4518 15.5452 10.4338 15.1966 10.4338 14.8853C 10.0119 15.5284 9.40864 16.0931 8.62277 16.5806C 7.83689 17.068 6.83365 17.3111 5.6156 17.3111C 4.75127 17.3111 3.97054 17.1735 3.2747 16.8944C 2.57628 16.6179 1.98334 16.2539 1.49586 15.7985C 1.00839 15.3432 0.636675 14.8236 0.383291 14.2371C 0.129907 13.6506 0 13.0383 0 12.3952ZM 6.54683 14.023C 7.00858 14.023 7.45875 13.9626 7.89092 13.8404C 8.32309 13.7182 8.70509 13.5086 9.03951 13.2102C 9.37135 12.9105 9.63502 12.5233 9.83567 12.0461C 10.0338 11.5715 10.1341 10.9657 10.1341 10.2364L 10.1341 9.50586L 6.4465 10.0692C 5.87157 10.158 5.38667 10.3638 5.00209 10.6853C 4.61237 11.0069 4.41943 11.4892 4.41943 12.1297C 4.41943 12.6185 4.59564 13.0571 4.95193 13.443C 5.30563 13.8288 5.83555 14.023 6.54683 14.023Z"/>
<path id="path9_fill" fill-rule="evenodd" d="M 0 23.0271L 0 0.365284L 4.28823 0.365284L 4.28823 2.35891C 4.66509 1.71581 5.28247 1.16274 6.14681 0.697127C 7.01114 0.231518 8.06326 0 9.30446 0C 10.5006 0 11.563 0.214797 12.4943 0.646965C 13.4242 1.07913 14.2152 1.67851 14.8712 2.44252C 15.5246 3.20653 16.0172 4.1043 16.3478 5.13456C 16.6796 6.16482 16.8455 7.28896 16.8455 8.50701C 16.8455 9.7482 16.6642 10.8929 16.2976 11.9463C 15.9336 12.9972 15.4127 13.9065 14.7374 14.6705C 14.0596 15.4345 13.248 16.0352 12.2936 16.4648C 11.3418 16.897 10.2884 17.1143 9.13854 17.1143C 8.00796 17.1143 7.03815 16.9201 6.22913 16.533C 5.42267 16.1445 4.81686 15.6738 4.41814 15.1207L 4.41814 23.0283L 0 23.0283L 0 23.0271ZM 12.4955 8.5378C 12.4955 7.07538 12.1006 5.94609 11.3147 5.14735C 10.5289 4.3499 9.57192 3.95117 8.44134 3.95117C 7.86383 3.95117 7.33391 4.05664 6.84644 4.26758C 6.35896 4.47852 5.9268 4.77692 5.54994 5.16536C 5.17308 5.55379 4.88111 6.0284 4.67017 6.59305C 4.45923 7.1577 4.35376 7.80595 4.35376 8.5378C 4.35376 9.26837 4.45923 9.91791 4.67017 10.48C 4.88111 11.0446 5.17308 11.527 5.54994 11.927C 5.9268 12.327 6.35896 12.6305 6.84644 12.8402C 7.33391 13.0524 7.86383 13.1553 8.44134 13.1553C 9.57192 13.1553 10.5289 12.7527 11.3147 11.9437C 12.1019 11.136 12.4955 10.0002 12.4955 8.5378Z"/>
<path id="path10_fill" fill-rule="evenodd" d="M 4.41943 24.0586L 0 24.0586L 0 0L 4.41943 0L 4.41943 9.07166C 4.95192 8.42855 5.62718 7.97066 6.4465 7.69284C 7.26581 7.41501 8.06455 7.27739 8.83756 7.27739C 9.88068 7.27739 10.7823 7.44846 11.545 7.79187C 12.3116 8.13529 12.9419 8.59576 13.4396 9.17198C 13.94 9.7482 14.3091 10.4338 14.5522 11.2325C 14.7953 12.0299 14.9188 12.8711 14.9188 13.7573L 14.9188 24.0586L 10.4994 24.0586L 10.4994 14.5213C 10.4994 13.5901 10.2601 12.8158 9.78293 12.1946C 9.30832 11.5746 8.53659 11.2646 7.47418 11.2646C 6.54425 11.2646 5.81368 11.5682 5.28119 12.1779C 4.75127 12.7875 4.46187 13.5464 4.41685 14.4545L 4.41685 24.0586L 4.41943 24.0586Z"/>
<path id="path11_fill" fill-rule="evenodd" d="M 0.114673 4.05626L 7.05888 29.4817C 7.52647 31.19 9.28697 32.1962 10.9925 31.7299C 12.6981 31.261 13.7016 29.4965 13.2354 27.7882L 6.28983 2.36141C 5.82224 0.653157 4.06174 -0.353036 2.35617 0.114556C 0.651935 0.582148 -0.352919 2.34667 0.114673 4.05626Z"/>
<path id="path12_fill" fill-rule="evenodd" d="M 18.1959 1.08054L 0.805223 20.7475C -0.367106 22.0739 -0.245184 24.1024 1.07854 25.2774C 2.40227 26.4524 4.42537 26.3292 5.5977 25.0027L 22.9884 5.33576C 24.1607 4.00935 24.0388 1.98223 22.715 0.80722C 21.3913 -0.367789 19.3696 -0.245867 18.1959 1.08054Z"/>
<path id="path13_fill" fill-rule="evenodd" d="M 2.19698 6.25591L 26.9981 14.4716C 28.6769 15.0289 30.487 14.1152 31.043 12.4337C 31.599 10.751 30.6866 8.93686 29.0091 8.38218L 4.20669 0.162478C 2.52792 -0.392201 0.71784 0.518866 0.163161 2.20166C -0.392858 3.88445 0.518209 5.69855 2.19698 6.25591Z"/>
</defs>
</svg>
