<svg xmlns="http://www.w3.org/2000/svg" xmlns:xlink="http://www.w3.org/1999/xlink" id="mainsvg" version="1.1" x="0px" y="0px" enable-background="new 0 0 200 162.5" xml:space="preserve" width="94" height="94"><path fill="#137EF1" transform="translate(5.5, 75.09375)" d="M38.44-0.94L38.44-55.47L38.44-55.47Q38.52-60.31 36.91-61.91L36.91-61.91L36.91-61.91Q35.31-63.52 30.47-63.44L30.47-63.44L5.63-63.44L5.63-0.94L2.50-0.94L2.50 5L40.78 5L40.78-0.94L38.44-0.94ZM41.25 8.44L52.81 8.44L60.94-52.19L62.81-52.19L62.81-52.19Q65.08-52.34 65-50.16L65-50.16L64.38 2.34L59.06 2.34L59.06 8.44L75.63 8.44L76.09-50.47L76.09-50.47Q76.17-55.31 74.65-56.84L74.65-56.84L74.65-56.84Q73.13-58.36 68.28-58.28L68.28-58.28L61.56-58.28L61.56-66.09L50-66.09L50-58.28L41.41-58.28L41.41-52.19L49.38-52.19L41.25 8.44ZM27.19-16.88L27.19-0.94L16.88-0.94L16.88-16.88L27.19-16.88ZM16.88-22.81L16.88-37.50L27.19-37.50L27.19-22.81L16.88-22.81ZM16.88-43.44L16.88-57.50L24.06-57.50L24.06-57.50Q27.50-57.81 27.19-54.38L27.19-54.38L27.19-43.44L16.88-43.44Z"/></svg>