<?xml version="1.0" standalone="no"?><!DOCTYPE svg PUBLIC "-//W3C//DTD SVG 1.1//EN" "http://www.w3.org/Graphics/SVG/1.1/DTD/svg11.dtd"><svg t="1583635894101" class="icon" viewBox="0 0 1024 1024" version="1.1" xmlns="http://www.w3.org/2000/svg" p-id="1914" xmlns:xlink="http://www.w3.org/1999/xlink" width="200" height="200"><defs><style type="text/css">@font-face { font-weight: 400; font-style: normal; font-family: Inter-Loom; src: url("https://cdn.loom.com/assets/fonts/inter/Inter-UI-Regular.woff2") format("woff2"); }
@font-face { font-weight: 400; font-style: italic; font-family: Inter-Loom; src: url("https://cdn.loom.com/assets/fonts/inter/Inter-UI-Italic.woff2") format("woff2"); }
@font-face { font-weight: 500; font-style: normal; font-family: Inter-Loom; src: url("https://cdn.loom.com/assets/fonts/inter/Inter-UI-Medium.woff2") format("woff2"); }
@font-face { font-weight: 500; font-style: italic; font-family: Inter-Loom; src: url("https://cdn.loom.com/assets/fonts/inter/Inter-UI-MediumItalic.woff2") format("woff2"); }
@font-face { font-weight: 700; font-style: normal; font-family: Inter-Loom; src: url("https://cdn.loom.com/assets/fonts/inter/Inter-UI-Bold.woff2") format("woff2"); }
@font-face { font-weight: 700; font-style: italic; font-family: Inter-Loom; src: url("https://cdn.loom.com/assets/fonts/inter/Inter-UI-BoldItalic.woff2") format("woff2"); }
@font-face { font-weight: 900; font-style: normal; font-family: Inter-Loom; src: url("https://cdn.loom.com/assets/fonts/inter/Inter-UI-Black.woff2") format("woff2"); }
@font-face { font-weight: 900; font-style: italic; font-family: Inter-Loom; src: url("https://cdn.loom.com/assets/fonts/inter/Inter-UI-BlackItalic.woff2") format("woff2"); }
</style></defs><path d="M908.2 666.1L814.4 612c10.6-31.7 16.3-65.5 16.3-100.7 0-35.1-5.7-69-16.2-100.6l93.7-54.1c12-6.9 16.2-22.5 9.2-34.5l-38.8-67.2c-6.9-12-22.5-16.2-34.5-9.2l-93.8 54.2c-44.9-50.5-105.5-86.6-174.3-100.6V90.9c0-13.9-11.4-25.2-25.2-25.2h-77.5c-13.9 0-25.2 11.4-25.2 25.2v108.4c-68.7 14.1-129.2 50.2-174 100.7l-94-54.3c-12-6.9-27.5-2.8-34.5 9.2l-38.8 67.2c-6.9 12-2.8 27.5 9.2 34.5l94 54.3c-10.5 31.6-16.2 65.3-16.2 100.4s5.7 69 16.2 100.6l-94 54.2c-12 6.9-16.2 22.5-9.2 34.5l38.8 67.2c6.9 12 22.5 16.2 34.5 9.2l94.2-54.4C319 773 379.5 809.1 448.1 823.2v108.6c0 13.9 11.4 25.2 25.2 25.2h77.5c13.9 0 25.2-11.4 25.2-25.2V823.3c68.7-14 129.3-50.1 174.2-100.5l93.9 54.2c12 6.9 27.5 2.8 34.5-9.2l38.8-67.2c7-12 2.8-27.6-9.2-34.5z m-395.9 36.2c-105.5 0-191-85.6-191-191s85.4-191.1 191-191.1 191 85.6 191 191-85.5 191.1-191 191.1z" fill="#555555" p-id="1915"></path></svg>