<?xml version="1.0" encoding="iso-8859-1"?>
<!-- Generator: Adobe Illustrator 19.0.0, SVG Export Plug-In . SVG Version: 6.00 Build 0)  -->
<svg version="1.1" id="Layer_1" xmlns="http://www.w3.org/2000/svg" xmlns:xlink="http://www.w3.org/1999/xlink" x="0px" y="0px"
	 viewBox="0 0 511.999 511.999" style="enable-background:new 0 0 511.999 511.999;" xml:space="preserve">
<g>
	<g>
		<path d="M489.175,206.556c-9.629-1.442-19.514-2.825-29.379-4.111c-1.195-0.155-2.165-0.966-2.467-2.064
			c-4.553-16.523-11.16-32.467-19.636-47.389c-0.57-1.002-0.463-2.266,0.273-3.223c6.067-7.885,12.081-15.856,17.876-23.69
			c7.824-10.578,6.688-25.588-2.64-34.917l-32.366-32.366c-9.329-9.328-24.338-10.464-34.918-2.638
			c-7.817,5.782-15.787,11.796-23.689,17.875c-0.954,0.736-2.221,0.843-3.223,0.274c-14.921-8.476-30.865-15.083-47.389-19.637
			c-1.099-0.301-1.91-1.271-2.066-2.469c-1.289-9.88-2.671-19.764-4.109-29.376C303.495,9.812,292.079,0,278.886,0h-45.773
			c-13.194,0-24.61,9.812-26.554,22.824c-1.439,9.614-2.821,19.497-4.11,29.379c-0.157,1.197-0.967,2.165-2.067,2.467
			c-16.524,4.556-32.469,11.162-47.387,19.637c-1.003,0.569-2.269,0.459-3.225-0.274c-7.901-6.079-15.872-12.093-23.69-17.876
			c-10.581-7.825-25.59-6.687-34.917,2.64L58.797,91.163c-9.329,9.33-10.464,24.341-2.638,34.918
			c5.804,7.846,11.818,15.815,17.875,23.688c0.735,0.955,0.843,2.22,0.274,3.223c-8.478,14.925-15.084,30.869-19.637,47.389
			c-0.301,1.097-1.271,1.908-2.467,2.065c-9.86,1.287-19.744,2.669-29.378,4.111C9.812,208.502,0,219.92,0,233.112v45.774
			c0,13.193,9.812,24.61,22.824,26.556c9.634,1.442,19.519,2.824,29.379,4.11c1.197,0.157,2.165,0.967,2.467,2.066
			c4.553,16.521,11.16,32.465,19.637,47.389c0.569,1.003,0.461,2.268-0.274,3.223c-6.072,7.892-12.086,15.862-17.875,23.689
			c-7.825,10.578-6.691,25.589,2.638,34.918l32.366,32.366c9.33,9.329,24.341,10.465,34.918,2.638
			c7.817-5.782,15.787-11.796,23.689-17.875c0.955-0.736,2.221-0.842,3.223-0.274c14.92,8.476,30.863,15.081,47.389,19.637
			c1.099,0.302,1.91,1.271,2.066,2.467c1.289,9.88,2.672,19.765,4.11,29.376c1.946,13.013,13.362,22.825,26.556,22.825h45.773
			c13.193,0,24.61-9.812,26.555-22.827c1.439-9.623,2.821-19.507,4.109-29.376c0.157-1.197,0.967-2.166,2.066-2.469
			c16.524-4.556,32.469-11.162,47.388-19.637c1.003-0.567,2.268-0.459,3.224,0.274c7.901,6.079,15.872,12.093,23.689,17.875
			c10.578,7.825,25.588,6.691,34.918-2.638l32.366-32.366c9.328-9.329,10.464-24.339,2.639-34.918
			c-5.795-7.831-11.81-15.802-17.876-23.689c-0.735-0.955-0.843-2.22-0.273-3.223c8.477-14.924,15.083-30.868,19.636-47.388
			c0.304-1.1,1.272-1.91,2.469-2.067c9.863-1.286,19.748-2.669,29.378-4.11c13.013-1.945,22.825-13.362,22.825-26.555v-45.774
			C511.999,219.919,502.187,208.501,489.175,206.556z M488.091,278.888c0,1.45-1.054,2.7-2.453,2.911
			c-9.482,1.419-19.216,2.779-28.932,4.048c-10.758,1.402-19.56,9.024-22.426,19.42c-4.029,14.618-9.875,28.727-17.375,41.932
			c-5.333,9.389-4.504,21.012,2.112,29.612c5.976,7.768,11.899,15.617,17.604,23.329c0.842,1.137,0.702,2.769-0.323,3.794
			l-32.367,32.366c-1.026,1.026-2.657,1.163-3.793,0.324c-7.697-5.695-15.548-11.618-23.33-17.605
			c-8.599-6.617-20.221-7.446-29.609-2.114c-13.205,7.5-27.314,13.347-41.934,17.377c-10.394,2.865-18.016,11.667-19.421,22.426
			c-1.267,9.722-2.629,19.456-4.047,28.932c-0.209,1.399-1.461,2.453-2.911,2.453h-45.773c-1.45,0-2.702-1.054-2.911-2.454
			c-1.415-9.465-2.778-19.199-4.047-28.93c-1.403-10.759-9.027-19.561-19.421-22.426c-14.621-4.03-28.73-9.877-41.934-17.378
			c-4.117-2.337-8.664-3.491-13.196-3.491c-5.804,0-11.585,1.89-16.412,5.607c-7.783,5.987-15.633,11.91-23.33,17.605
			c-1.138,0.839-2.767,0.702-3.792-0.324l-32.367-32.366c-1.026-1.026-1.166-2.656-0.324-3.793
			c5.701-7.707,11.623-15.556,17.604-23.33c6.615-8.6,7.445-20.221,2.114-29.609c-7.503-13.209-13.348-27.317-17.377-41.934
			c-2.865-10.394-11.667-18.017-22.425-19.42c-9.712-1.267-19.447-2.63-28.934-4.048c-1.399-0.21-2.453-1.461-2.453-2.911v-45.774
			c0-1.45,1.054-2.701,2.453-2.911c9.487-1.419,19.221-2.781,28.932-4.048c10.759-1.402,19.561-9.025,22.426-19.42
			c4.027-14.616,9.874-28.725,17.377-41.934c5.332-9.389,4.502-21.011-2.113-29.609c-5.965-7.756-11.888-15.604-17.604-23.33
			c-0.84-1.137-0.701-2.769,0.324-3.793l32.365-32.367c1.024-1.026,2.655-1.163,3.792-0.324c7.697,5.694,15.547,11.617,23.33,17.605
			c8.6,6.614,20.221,7.445,29.611,2.112c13.203-7.5,27.312-13.347,41.932-17.377c10.395-2.865,18.019-11.667,19.422-22.426
			c1.27-9.731,2.631-19.465,4.048-28.933c0.209-1.397,1.461-2.452,2.911-2.452h45.773c1.45,0,2.702,1.054,2.911,2.453
			c1.417,9.465,2.778,19.198,4.048,28.932c1.403,10.759,9.027,19.561,19.421,22.426c14.62,4.03,28.728,9.877,41.934,17.377
			c9.388,5.33,21.01,4.502,29.608-2.114c7.783-5.987,15.633-11.91,23.329-17.604c1.137-0.842,2.769-0.703,3.794,0.324l32.366,32.366
			c1.026,1.026,1.164,2.657,0.324,3.793c-5.705,7.714-11.628,15.562-17.604,23.33c-6.615,8.601-7.445,20.223-2.112,29.612
			c7.501,13.205,13.347,27.313,17.377,41.933c2.865,10.394,11.669,18.016,22.424,19.418c9.716,1.268,19.451,2.63,28.934,4.048
			c1.399,0.21,2.453,1.461,2.453,2.911V278.888z"/>
	</g>
</g>
<g>
	<g>
		<path d="M256,144.866c-61.28,0-111.134,49.854-111.134,111.134S194.72,367.134,256,367.134S367.134,317.28,367.134,256
			S317.28,144.866,256,144.866z M256,343.225c-48.097,0-87.225-39.129-87.225-87.225c0-48.097,39.13-87.225,87.225-87.225
			c48.096,0,87.225,39.129,87.225,87.225S304.097,343.225,256,343.225z"/>
	</g>
</g>
<g>
</g>
<g>
</g>
<g>
</g>
<g>
</g>
<g>
</g>
<g>
</g>
<g>
</g>
<g>
</g>
<g>
</g>
<g>
</g>
<g>
</g>
<g>
</g>
<g>
</g>
<g>
</g>
<g>
</g>
</svg>
